<?xml version="1.0" encoding="utf-8" standalone="no"?>
<svg version="1.1" viewBox="0 0 62 30" xmlns="http://www.w3.org/2000/svg">
  <rect style="fill:none;opacity:0" width="62" height="30"/>
  <g style="fill:#ffffff">
    <path style="opacity:0.6" d="m 36.44,13 h 21.22 l 1.78,2 h -23 z"/>
    <path style="opacity:0.6" d="m 14.82,19.07 c -2.24,2.24 -5.89,2.24 -8.14,0 -2.24,-2.24 -2.24,-5.89 0,-8.14 2.24,-2.24 5.89,-2.24 8.13,0 2.24,2.24 2.24,5.89 0,8.13 z m -6.71,-6.71 c -1.46,1.46 -1.46,3.83 0,5.29 1.46,1.46 3.83,1.46 5.29,0 1.46,-1.46 1.46,-3.83 0,-5.28 -1.46,-1.46 -3.83,-1.46 -5.28,0 z"/>
    <path style="opacity:0.9" d="M 15 0 C 11.16 0 7.31 1.46 4.39 4.39 C -1.46 10.24 -1.46 19.76 4.39 25.61 C 10.24 31.46 19.76 31.46 25.61 25.61 C 26.6 24.62 27.42 23.53 28.07 22.37 L 30.16 22.37 L 32.41 20.16 L 40.33 20.16 L 41.91 21.72 L 46.69 21.72 L 49.48 18.97 L 51.77 21.23 L 55.52 21.23 L 62 14.84 L 55.28 8.22 L 31.74 8.22 L 30.59 6.98 L 27.69 6.98 C 27.11 6.06 26.41 5.19 25.61 4.39 C 22.69 1.46 18.84 0 15 0 z M 15 2.02 C 18.33 2.02 21.65 3.28 24.18 5.81 C 29.25 10.88 29.25 19.12 24.18 24.18 C 19.12 29.25 10.88 29.25 5.81 24.18 C 0.75 19.12 0.75 10.88 5.81 5.81 C 8.35 3.28 11.67 2.02 15 2.02 z M 28.75 8.99 L 29.69 9 L 30.84 10.24 L 54.43 10.24 L 59.1 14.84 L 54.67 19.21 L 52.62 19.21 L 49.48 16.12 L 45.84 19.71 L 42.76 19.71 L 41.17 18.14 L 31.56 18.14 L 29.31 20.36 L 29.02 20.36 C 30.41 16.69 30.32 12.59 28.75 8.99 z"/>
  </g>
</svg>
