<?xml version="1.0" encoding="UTF-8" standalone="no"?>
<svg  version="1.1" viewBox="0 0 62 30" xmlns="http://www.w3.org/2000/svg">
  <g style="fill:#ffffff">
    <rect  style="opacity:0" width="62" height="30"/>
    <path style="opacity:0.6" d="m 36.44,13 h 21.22 l 1.78,2 h -23 z"/>
    <path style="opacity:0.9" d="m 62,14.844 -6.478,6.386 h -3.749 l -2.292,-2.26 -2.793,2.754 h -4.774 l -1.588,-1.566 -7.918,0 -2.247,2.215 -4.318,0 C 29.015,17.037 28.81,11.925 25.369,6.98 h 5.219 l 1.154,1.238 h 23.538 l 6.721,6.625 z m -7.327,4.368 4.431,-4.368 -4.674,-4.607 -23.589,0 -1.154,-1.237 -1.113,-0.015 C 30.184,12.595 30.396,16.675 28.963,20.355 h 0.348 l 2.247,-2.215 9.615,0 1.588,1.566 h 3.076 l 3.642,-3.59 3.141,3.096 z"/>
    <path d="m 25.612,25.612 c -5.851,5.851 -15.372,5.851 -21.223,0 -5.851,-5.851 -5.852,-15.372 0,-21.223 5.851,-5.851 15.372,-5.851 21.223,0 5.852,5.851 5.852,15.372 0,21.223 z M 5.815,5.815 c -5.064,5.064 -5.064,13.304 0,18.368 5.064,5.064 13.305,5.064 18.369,0 5.064,-5.064 5.064,-13.3 0,-18.368 -5.064,-5.064 -13.305,-5.064 -18.369,0 z"/>
    <path style="opacity:0.6" d="m 14.818,19.074 c -2.242,2.242 -5.893,2.243 -8.136,0 -2.243,-2.243 -2.243,-5.893 0,-8.136 2.243,-2.243 5.892,-2.242 8.135,0 2.243,2.243 2.243,5.892 0,8.135 z m -6.709,-6.709 c -1.457,1.457 -1.457,3.828 0,5.285 1.457,1.457 3.828,1.457 5.285,0 1.456,-1.456 1.456,-3.827 0,-5.284 -1.457,-1.457 -3.827,-1.457 -5.284,0 z"/>
  </g>
</svg>
