<?xml version="1.0" encoding="utf-8" standalone="no"?>
<svg version="1.1" viewBox="0 0 64 64" xmlns="http://www.w3.org/2000/svg">
  <g style="fill:#ffffff">
    <rect style="opacity:0" width="64" height="64"/>
    <path style="opacity:0.6" d="M 32,59 C 17.11,59 5,47 5,32 5,17.11 17.11,5 32,5 c 7,0 13.6,2.65 18.65,7.47 0.55,0.55 0.72,1.18 0.2,1.75 -0.5,0.55 -1.18,0.3 -1.73,-0.22 C 44.6,9.657 38.26,7 32,7 c -13.36,0 -25,11.64 -25,25 0,13.36 11.64,25 25,25 5.66,0 11.33,-2.5 15.68,-6.13 0.6,-0.5 1.4,-0.6 1.9,0 0.5,0.6 0.31,1.37 -0.27,1.86 -4.84,4 -11,6.28 -17.3,6.28 z"/>
    <path d="m 46.258,22.892 c -1.518,0 -2.046,-0.726 -2.226,-1.159 -0.18,-0.433 -0.321,-1.321 0.753,-2.4 L 55.45,8.629 c 0.583,-0.585 1.18,-0.882 1.774,-0.882 0.823,0 1.785,0.615 1.789,2.35 l 0.016,9.15 c 0,0.964 -0.374,1.874 -1.058,2.56 -0.685,0.687 -1.593,1.066 -2.557,1.067 z m -0.186,-2 9.339,-0.016 c 0.431,0 0.836,-0.171 1.144,-0.479 0.307,-0.308 0.476,-0.715 0.475,-1.145 l -0.016,-9.34 z"/>
    <path style="opacity:0.6" d="m 40.5715,44.468 h -17.143 c -1.296,0 -2.352,-1.055 -2.352,-2.352 V 31.404 c 0,-1.296 1.055,-2.352 2.352,-2.352 h 17.143 c 1.297,0 2.352,1.055 2.352,2.352 v 10.713 c -10e-4,1.297 -1.055,2.351 -2.352,2.351 z m -17.143,-13.57 c -0.274,0 -0.506,0.231 -0.506,0.506 v 10.713 c 0,0.274 0.231,0.506 0.506,0.506 h 17.143 c 0.274,0 0.506,-0.231 0.506,-0.506 V 31.404 c 0,-0.274 -0.231,-0.506 -0.506,-0.506 z"/>
    <path d="m 40,27.532 h -2 c 0,-3.309 -2.691,-6 -6,-6 -3.309,0 -6,2.691 -6,6 h -2 c 0,-4.411 3.589,-8 8,-8 4.411,0 8,3.589 8,8 z"/>
    <rect x="24" y="27.5" width="2" height="1.554"/>
    <rect x="38" y="27.5" width="2" height="1.554"/>
    <path d="m 32.9345,35.047 c 0,-0.557 -0.354,-0.9385 -0.962,-0.9385 -0.477,0 -0.868,0.2405 -1.212,0.608 L 30,34.024 C 30.526,33.429 31.25,33 32.1375,33 c 1.232,0 2.109,0.675 2.11,1.953 0,1.5 -1.836,2.0335 -1.67,3.552 h -1.19 c -0.25,-1.722 1.551,-2.3925 1.5513,-3.458 z"/>
    <ellipse id="path7925" cx="32" cy="40.2" rx="0.8" ry="0.85"/>
  </g>
</svg>
