<?xml version="1.0" encoding="utf-8" standalone="no"?>
<svg version="1.1" viewBox="0 0 64 64" xmlns="http://www.w3.org/2000/svg">
  <rect style="fill:none;opacity:0" width="64" height="64"/>
  <g style="fill:#ffffff">
    <path style="opacity:0.6" d="M 32,59 C 17.11,59 5,47 5,32 5,17.11 17.11,5 32,5 c 7,0 13.6,2.65 18.65,7.47 l 1.25,1.21 -1.49,1.56 c 0,0 -1.29,-1.24 -1.3,-1.24 C 44.6,9.66 38.26,7 32,7 18.64,7 7,18.64 7,32 c 0,13.36 11.64,25 25,25 5.66,0 11.33,-2.5 15.68,-6.13 0.6,-0.5 1.4,-0.6 1.9,0 0.5,0.6 0.31,1.37 -0.27,1.86 -4.84,4 -11,6.28 -17.3,6.28 z"/>
    <path d="m 46.26,22.89 c -1.52,0 -2.05,-0.73 -2.23,-1.16 -0.18,-0.43 -0.32,-1.32 0.75,-2.4 L 55.45,8.63 c 0.58,-0.58 1.18,-0.88 1.77,-0.88 0.82,0 1.78,0.61 1.79,2.35 l 0.02,9.15 c 0,0.96 -0.37,1.87 -1.06,2.56 -0.69,0.69 -1.59,1.07 -2.56,1.07 z m -0.19,-2 9.34,-0.02 c 0.43,0 0.84,-0.17 1.14,-0.48 0.31,-0.31 0.48,-0.71 0.47,-1.15 l -0.02,-9.34 z"/>
    <path style="opacity:0.6" d="M 40.57,44.47 H 23.43 c -1.3,0 -2.35,-1.05 -2.35,-2.35 V 31.4 c 0,-1.3 1.05,-2.35 2.35,-2.35 h 17.14 c 1.3,0 2.35,1.05 2.35,2.35 v 10.72 c 0,1.3 -1.05,2.34 -2.35,2.34 z M 23.43,30.9 c -0.27,0 -0.51,0.23 -0.51,0.51 v 10.71 c 0,0.27 0.23,0.51 0.51,0.51 h 17.14 c 0.27,0 0.51,-0.23 0.51,-0.51 V 31.4 c 0,-0.27 -0.23,-0.51 -0.51,-0.51 z"/>
    <path d="M 32 19.53 C 27.6 19.53 24.02 23.1 24 27.5 C 24 27.51 24 27.52 24 27.53 L 24 29.05 L 26 29.05 L 26 27.53 C 26 24.22 28.69 21.53 32 21.53 C 35.31 21.53 38 24.22 38 27.53 L 38 29.05 L 40 29.05 L 40 27.5 C 39.98 23.1 36.4 19.53 32 19.53 z"/>
    <path d="m 31.46,37.91 c -0.28,0.28 -0.74,0.28 -1.02,0 l -2.61,-2.61 c -0.28,-0.28 -0.74,-0.28 -1.02,0 l -0.39,0.39 c -0.28,0.28 -0.28,0.74 0,1.02 l 3.5,3.5 c 0.55,0.55 1.39,0.67 2.08,-0.02 l 5.58,-5.58 c 0.28,-0.28 0.28,-0.73 0,-1.02 L 37.18,33.21 c -0.28,-0.28 -0.74,-0.28 -1.02,0 z"/>
  </g>
</svg>
