<?xml version="1.0" encoding="UTF-8" standalone="no"?>
<svg version="1.1" viewBox="0 0 32 28" xmlns="http://www.w3.org/2000/svg">
  <rect style="opacity:0;fill:#ffffff" width="32" height="28"/>
  <path style="fill:#de7454" d="M 1.758,28 C 0.191,28 -0.449,26.896 0.334,25.546 L 14.5755,1.0125 c 0.783,-1.35 2.065,-1.35 2.848,0 l 14.2425,24.534 c 0.783,1.35 0.142,2.454 -1.424,2.454 z"/>
  <path style="fill:#ffffff" d="m 18.136,22.9175 c 0,0.615 -0.204,1.127 -0.61,1.534 -0.41,0.407 -0.917,0.613 -1.526,0.613 -0.608,0 -1.116,-0.206 -1.524,-0.613 -0.409,-0.407 -0.612,-0.919 -0.612,-1.534 0,-0.602 0.202,-1.105 0.612,-1.513 0.408,-0.41 0.917,-0.613 1.524,-0.613 0.609,0 1.116,0.203 1.526,0.613 0.407,0.408 0.61,0.912 0.61,1.513 z"/>
  <path style="fill:#ffffff" d="m 14.2955,11.983 c -0.048,-0.699 -0.109,-1.843 -0.135,-2.542 l -0.034,-0.906 c -0.026,-0.7 0.525,-1.272 1.226,-1.272 h 1.294 c 0.701,0 1.252,0.573 1.226,1.272 l -0.034,0.906 c -0.026,0.7 -0.087,1.844 -0.134,2.542 l -0.372,5.403 c -0.047,0.699 -0.647,1.27 -1.333,1.27 -0.685,0 -1.285,-0.571 -1.333,-1.27 z"/>
</svg>
